<?xml version="1.0" encoding="UTF-8" standalone="no"?>
<!-- Created with Inkscape (http://www.inkscape.org/) -->

<svg
   width="380.7301mm"
   height="316.37704mm"
   viewBox="0 0 380.7301 316.37704"
   version="1.1"
   id="svg1"
   xmlns="http://www.w3.org/2000/svg"
   xmlns:svg="http://www.w3.org/2000/svg">
  <defs
     id="defs1" />
  <g
     id="layer1"
     transform="translate(-53.444914,-95.512161)">
    <path
       id="path4"
       style="fill:#8b8b8b;stroke-width:0.309993"
       d="m 315.41745,128.7005 a 32.5,32.5 0 0 1 -32.5,32.5 32.5,32.5 0 0 1 -32.5,-32.5 32.5,32.5 0 0 1 32.5,-32.5 32.5,32.5 0 0 1 32.5,32.5 z" />
    <path
       id="path3"
       style="fill:#70dfff;fill-opacity:1;stroke-width:0.335655"
       d="m 243.80965,292.48326 c -105.13532,1e-4 -190.364346,48.79747 -190.364732,108.9922 -1.8e-5,1.83056 0.08051,3.66083 0.241511,5.48907 8.353278,-83.89937 131.104941,-89.41771 189.493901,-89.41785 68.32529,-1.6e-4 181.45457,8.35944 190.12387,94.34253 0.58025,-3.46131 0.87086,-6.93653 0.87083,-10.41375 -3.9e-4,-60.19487 -85.22981,-108.99231 -190.36538,-108.9922 z" />
    <path
       d="M 339.65388,316.05179 H 308.5592 L 287.04345,254.894 h -94.9051 l -21.51575,61.15779 h -29.621 L 220.87515,96.620594 h 38.90519 z M 278.05399,229.84141 239.5909,122.11529 200.98044,229.84141 Z"
       id="text3"
       style="font-size:301.81px;fill:#ffffff;stroke-width:0.323368"
       transform="scale(1.0116052,0.98852796)"
       aria-label="A" />
    <path
       d="m 312.7189,140.75472 c -0.16114,0 -1.16597,6.03924 -1.25884,6.62595 -0.082,0.51786 -1.81271,7.81927 -1.88774,7.95093 -0.30527,0.53565 -1.03848,0.745 -1.25884,1.32499 -0.23372,0.61519 0.12339,1.33776 0,1.98747 -0.33198,1.7477 -1.85088,2.5725 -2.51716,3.97547 -0.18764,0.39509 0.13267,0.90645 0,1.3255 -1.32164,4.17446 -5.63899,7.91806 -8.18089,11.2634 -1.40977,1.85535 -2.33159,4.13856 -3.776,5.96346 -3.4557,4.36602 -8.19136,7.29884 -11.95689,11.26339 -0.7416,0.78084 -1.0984,1.9233 -1.88774,2.65049 -1.84101,1.69604 -4.3829,2.36649 -6.29316,3.97546 -1.15823,0.97558 -1.98834,2.33689 -3.14658,3.31246 -5.15557,4.34248 -14.04395,8.85163 -20.13779,10.60142 -5.95552,1.71009 -12.20331,2.00187 -18.24953,3.31246 -2.69713,0.58465 -4.64651,1.02655 -6.0048,1.35289 16.84003,-2.2878 -11.01479,2.64638 0,0 -2.96435,0.40273 -7.31404,1.02905 -13.50409,1.96009 -3.42483,0.5151 -6.68324,1.90011 -10.06863,2.65048 -9.48107,2.10152 -18.89717,4.26368 -28.31869,6.62544 -9.83122,2.46451 -19.83703,3.82905 -29.57752,6.62595 -2.29648,0.65945 -4.82277,2.30806 -6.92257,3.31298 -3.26972,1.5648 -6.85616,2.28382 -10.06864,3.97495 -11.03174,5.80744 3.8223,-1.57311 -5.66374,3.97547 -0.98748,0.57761 -2.1362,0.79359 -3.14658,1.3255 -3.54858,1.86805 -7.28744,5.02223 -10.06863,7.95042 -0.74164,0.78085 -1.09192,1.93183 -1.88826,2.65048 -0.71227,0.64277 -1.80489,0.68221 -2.51716,1.32498 -2.38902,2.15598 -3.54714,5.49963 -5.663734,7.95094 -0.705531,0.81709 -1.90752,1.0894 -2.517159,1.98799 -9.77e-4,0 -2.915959,8.04631 -3.146578,8.61291 -0.739085,1.81566 -2.110148,3.37261 -2.517159,5.30097 -0.855093,4.05131 0.240409,20.38352 1.88774,23.85229 0.338245,0.71224 0.920606,1.27523 1.258838,1.98748 1.096148,2.30814 1.318553,6.0263 3.146578,7.95093 0.331679,0.3492 0.998141,0.25157 1.258321,0.6625 0.232721,0.36751 -0.187618,0.93043 0,1.3255 0.680964,1.43393 1.983873,2.291 2.517163,3.97546 0.61158,1.9317 -0.789261,3.98757 -1.258325,5.96295 5.731345,-5.00524 12.018355,-9.37856 18.878955,-12.5889 1.03227,-0.48303 2.16578,-0.7349 3.14657,-1.32498 0.51514,-0.30994 0.70795,-1.09347 1.25884,-1.3255 0.58429,-0.24605 1.27065,0.12991 1.88774,0 1.37985,-0.29054 2.42298,-1.58046 3.776,-1.98748 0.60509,-0.18202 1.29073,0.20954 1.88774,0 0.71752,-0.25181 1.17022,-1.07319 1.88774,-1.32498 0.9103,-0.31948 3.25416,-0.11302 3.776,-0.66249 0.14833,-0.15615 -0.14832,-0.50686 0,-0.66301 0.41954,-0.44174 2.09761,0.44171 2.51715,0 0.44406,-0.46754 -0.28104,-6.76683 0,-7.95042 0.22752,-0.9582 0.98928,-1.70443 1.25884,-2.65049 0.36665,-1.28676 0.26278,-2.6887 0.62942,-3.97546 1.51928,-5.33191 5.14715,-12.00137 8.1809,-16.56437 0.77026,-1.15854 1.82609,-2.09982 2.51716,-3.31246 0.58119,-1.01984 0.75314,-2.24919 1.25832,-3.31297 1.88033,-3.95942 5.23219,-7.49583 8.18141,-10.60091 14.62147,-15.39436 33.74756,-20.35794 53.49079,-24.5153 2.7055,-0.5697 5.43316,-1.06196 8.1809,-1.32498 1.04453,-0.1 2.11202,0.18154 3.14658,0 1.50636,-0.2643 2.89602,-1.081 4.40541,-1.3255 1.24397,-0.20151 2.52059,0.10166 3.77548,0 5.29416,-0.42876 10.45544,-2.14482 15.73289,-2.64997 1.04453,-0.1 2.11465,0.19755 3.14658,0 1.30529,-0.24987 2.48276,-1.0109 3.77548,-1.32498 5.72846,-1.39183 9.72808,-1.14574 15.10347,-3.97547 2.76208,-1.45406 9.13145,-6.30136 11.32747,-8.61343 0.53482,-0.56308 0.72406,-1.42491 1.25884,-1.98799 2.2731,-2.39323 6.124,-4.76137 8.1809,-7.28793 0.61052,-0.74992 0.65776,-1.8917 1.25832,-2.65048 0.4842,-0.61174 1.35345,-0.76191 1.88826,-1.32498 1.36753,-1.43981 2.70272,-2.94374 3.77548,-4.63796 0.36798,-0.58111 0.30032,-1.38163 0.62942,-1.988 5.57605,-10.27384 -0.73861,2.16036 3.14657,-3.97546 1.23711,-1.95372 2.55087,-4.02812 3.776,-5.96295 2.77291,-0.66732 0.66502,-2.72612 1.25832,-3.97547 0.26533,-0.55872 0.90286,-0.82524 1.25884,-1.32498 2.71612,-3.8129 3.14658,-10.68803 3.14658,-15.23938 0,-2.40336 -0.0161,-3.90706 -0.0351,-4.80591 -0.0678,-0.42425 -0.0716,-1.13657 -0.0538,-1.17512 0,0 5.2e-4,-5.2e-4 5.2e-4,-5.2e-4 0,0 0,-5.1e-4 0,-5.1e-4 0,0 5.2e-4,-5.2e-4 5.2e-4,-5.2e-4 0,0 5.1e-4,0 5.1e-4,0 0,0 5.2e-4,5.2e-4 5.2e-4,5.2e-4 0.0126,0.0163 0.0337,0.32515 0.0517,1.17615 0.087,0.54427 0.27922,0.61465 0.66456,-1.81952 0.6861,-4.33425 0,-9.53569 0,-13.91388 v -4.63796 c 0,-0.44172 0.41954,-1.3255 0,-1.3255 z"
       style="fill:#ff1717;stroke-width:0.335655"
       id="path6" />
  </g>
</svg>
